<mxfile host="app.diagrams.net" agent="Mozilla/5.0 (Windows NT 10.0; Win64; x64) AppleWebKit/537.36 (KHTML, like Gecko) Chrome/135.0.0.0 Safari/537.36" version="26.2.13">
  <diagram name="Страница — 1" id="knC71Jz975IiXlqvgRfT">
    <mxGraphModel dx="1926" dy="1774" grid="1" gridSize="10" guides="1" tooltips="1" connect="1" arrows="1" fold="1" page="1" pageScale="1" pageWidth="827" pageHeight="1169" background="#ffffff" math="0" shadow="0">
      <root>
        <mxCell id="0" />
        <mxCell id="1" parent="0" />
        <mxCell id="L7GlHGJg_z0xj1cNvvH3-30" value="" style="rounded=0;whiteSpace=wrap;html=1;glass=0;shadow=0;strokeWidth=3;" vertex="1" parent="1">
          <mxGeometry x="1" y="-10" width="749" height="1030" as="geometry" />
        </mxCell>
        <mxCell id="gKKn0FGeRDZzM-oo-BSr-1" value="Жилец" style="shape=umlActor;verticalLabelPosition=bottom;verticalAlign=top;html=1;" parent="1" vertex="1">
          <mxGeometry x="-60" y="95" width="30" height="60" as="geometry" />
        </mxCell>
        <mxCell id="gKKn0FGeRDZzM-oo-BSr-4" value="include" style="edgeStyle=orthogonalEdgeStyle;rounded=0;orthogonalLoop=1;jettySize=auto;html=1;endArrow=none;startFill=0;" parent="1" source="gKKn0FGeRDZzM-oo-BSr-2" target="gKKn0FGeRDZzM-oo-BSr-3" edge="1">
          <mxGeometry relative="1" as="geometry" />
        </mxCell>
        <mxCell id="gKKn0FGeRDZzM-oo-BSr-2" value="Подать заявку" style="ellipse;whiteSpace=wrap;html=1;" parent="1" vertex="1">
          <mxGeometry x="80" y="90" width="140" height="70" as="geometry" />
        </mxCell>
        <mxCell id="gKKn0FGeRDZzM-oo-BSr-6" value="include" style="edgeStyle=orthogonalEdgeStyle;rounded=0;orthogonalLoop=1;jettySize=auto;html=1;endArrow=none;startFill=0;" parent="1" source="gKKn0FGeRDZzM-oo-BSr-3" target="gKKn0FGeRDZzM-oo-BSr-5" edge="1">
          <mxGeometry relative="1" as="geometry" />
        </mxCell>
        <mxCell id="gKKn0FGeRDZzM-oo-BSr-3" value="Выбрать срочность" style="ellipse;whiteSpace=wrap;html=1;" parent="1" vertex="1">
          <mxGeometry x="370" y="90" width="140" height="70" as="geometry" />
        </mxCell>
        <mxCell id="gKKn0FGeRDZzM-oo-BSr-5" value="Прикрепить фото/видео" style="ellipse;whiteSpace=wrap;html=1;" parent="1" vertex="1">
          <mxGeometry x="600" y="90" width="140" height="70" as="geometry" />
        </mxCell>
        <mxCell id="gKKn0FGeRDZzM-oo-BSr-8" value="Просматривать статус заявки" style="ellipse;whiteSpace=wrap;html=1;" parent="1" vertex="1">
          <mxGeometry x="80" y="170" width="140" height="70" as="geometry" />
        </mxCell>
        <mxCell id="gKKn0FGeRDZzM-oo-BSr-10" value="Сотрудник УК" style="shape=umlActor;verticalLabelPosition=bottom;verticalAlign=top;html=1;" parent="1" vertex="1">
          <mxGeometry x="-60" y="420" width="30" height="60" as="geometry" />
        </mxCell>
        <mxCell id="gKKn0FGeRDZzM-oo-BSr-11" value="Просмотреть заявки" style="ellipse;whiteSpace=wrap;html=1;" parent="1" vertex="1">
          <mxGeometry x="80" y="340" width="140" height="70" as="geometry" />
        </mxCell>
        <mxCell id="gKKn0FGeRDZzM-oo-BSr-12" value="Получать уведомления об изменении статуса" style="ellipse;whiteSpace=wrap;html=1;" parent="1" vertex="1">
          <mxGeometry x="80" width="140" height="70" as="geometry" />
        </mxCell>
        <mxCell id="gKKn0FGeRDZzM-oo-BSr-18" value="extend" style="edgeStyle=orthogonalEdgeStyle;rounded=0;orthogonalLoop=1;jettySize=auto;html=1;endArrow=none;startFill=0;" parent="1" source="gKKn0FGeRDZzM-oo-BSr-14" target="gKKn0FGeRDZzM-oo-BSr-17" edge="1">
          <mxGeometry relative="1" as="geometry" />
        </mxCell>
        <mxCell id="gKKn0FGeRDZzM-oo-BSr-14" value="Оценить работу" style="ellipse;whiteSpace=wrap;html=1;" parent="1" vertex="1">
          <mxGeometry x="80" y="260" width="140" height="70" as="geometry" />
        </mxCell>
        <mxCell id="gKKn0FGeRDZzM-oo-BSr-17" value="Добавить комментарий" style="ellipse;whiteSpace=wrap;html=1;" parent="1" vertex="1">
          <mxGeometry x="360" y="260" width="140" height="70" as="geometry" />
        </mxCell>
        <mxCell id="gKKn0FGeRDZzM-oo-BSr-19" value="Назначить ответственного" style="ellipse;whiteSpace=wrap;html=1;" parent="1" vertex="1">
          <mxGeometry x="80" y="430" width="140" height="70" as="geometry" />
        </mxCell>
        <mxCell id="L7GlHGJg_z0xj1cNvvH3-8" value="include" style="edgeStyle=orthogonalEdgeStyle;rounded=0;orthogonalLoop=1;jettySize=auto;html=1;entryX=0;entryY=0.5;entryDx=0;entryDy=0;endArrow=none;startFill=0;" edge="1" parent="1" source="gKKn0FGeRDZzM-oo-BSr-20" target="gKKn0FGeRDZzM-oo-BSr-23">
          <mxGeometry relative="1" as="geometry" />
        </mxCell>
        <mxCell id="gKKn0FGeRDZzM-oo-BSr-20" value="Изменить статус" style="ellipse;whiteSpace=wrap;html=1;" parent="1" vertex="1">
          <mxGeometry x="80" y="510" width="140" height="70" as="geometry" />
        </mxCell>
        <mxCell id="gKKn0FGeRDZzM-oo-BSr-23" value="Добавить фотоотчет" style="ellipse;whiteSpace=wrap;html=1;" parent="1" vertex="1">
          <mxGeometry x="360" y="510" width="140" height="70" as="geometry" />
        </mxCell>
        <mxCell id="gKKn0FGeRDZzM-oo-BSr-25" value="Администратор" style="shape=umlActor;verticalLabelPosition=bottom;verticalAlign=top;html=1;" parent="1" vertex="1">
          <mxGeometry x="-60" y="775" width="30" height="60" as="geometry" />
        </mxCell>
        <mxCell id="gKKn0FGeRDZzM-oo-BSr-26" value="Редактировать роли" style="ellipse;whiteSpace=wrap;html=1;" parent="1" vertex="1">
          <mxGeometry x="80" y="690" width="140" height="70" as="geometry" />
        </mxCell>
        <mxCell id="gKKn0FGeRDZzM-oo-BSr-27" value="Редактировать сотрудников" style="ellipse;whiteSpace=wrap;html=1;" parent="1" vertex="1">
          <mxGeometry x="80" y="770" width="140" height="70" as="geometry" />
        </mxCell>
        <mxCell id="gKKn0FGeRDZzM-oo-BSr-28" value="Настроить категории" style="ellipse;whiteSpace=wrap;html=1;" parent="1" vertex="1">
          <mxGeometry x="80" y="850" width="140" height="70" as="geometry" />
        </mxCell>
        <mxCell id="gKKn0FGeRDZzM-oo-BSr-29" value="Экспортировать отчеты" style="ellipse;whiteSpace=wrap;html=1;" parent="1" vertex="1">
          <mxGeometry x="80" y="610" width="140" height="70" as="geometry" />
        </mxCell>
        <mxCell id="gKKn0FGeRDZzM-oo-BSr-30" value="Просмотреть историю изменений" style="ellipse;whiteSpace=wrap;html=1;" parent="1" vertex="1">
          <mxGeometry x="80" y="930" width="140" height="70" as="geometry" />
        </mxCell>
        <mxCell id="L7GlHGJg_z0xj1cNvvH3-15" value="" style="endArrow=none;html=1;rounded=0;entryX=0.003;entryY=0.57;entryDx=0;entryDy=0;entryPerimeter=0;" edge="1" parent="1" target="gKKn0FGeRDZzM-oo-BSr-27">
          <mxGeometry width="50" height="50" relative="1" as="geometry">
            <mxPoint x="-20" y="810" as="sourcePoint" />
            <mxPoint x="80" y="810" as="targetPoint" />
            <Array as="points">
              <mxPoint x="30" y="810" />
            </Array>
          </mxGeometry>
        </mxCell>
        <mxCell id="L7GlHGJg_z0xj1cNvvH3-16" value="" style="endArrow=none;html=1;rounded=0;entryX=0;entryY=0.5;entryDx=0;entryDy=0;edgeStyle=elbowEdgeStyle;elbow=vertical;" edge="1" parent="1" target="gKKn0FGeRDZzM-oo-BSr-26">
          <mxGeometry width="50" height="50" relative="1" as="geometry">
            <mxPoint x="40" y="810" as="sourcePoint" />
            <mxPoint x="80" y="750" as="targetPoint" />
            <Array as="points">
              <mxPoint x="40" y="725" />
            </Array>
          </mxGeometry>
        </mxCell>
        <mxCell id="L7GlHGJg_z0xj1cNvvH3-17" value="" style="endArrow=none;html=1;rounded=0;entryX=0;entryY=0.5;entryDx=0;entryDy=0;edgeStyle=elbowEdgeStyle;elbow=vertical;" edge="1" parent="1" target="gKKn0FGeRDZzM-oo-BSr-29">
          <mxGeometry width="50" height="50" relative="1" as="geometry">
            <mxPoint x="40" y="730" as="sourcePoint" />
            <mxPoint x="40" y="640" as="targetPoint" />
            <Array as="points">
              <mxPoint x="40" y="645" />
            </Array>
          </mxGeometry>
        </mxCell>
        <mxCell id="L7GlHGJg_z0xj1cNvvH3-18" value="" style="endArrow=none;html=1;rounded=0;entryX=0;entryY=0.5;entryDx=0;entryDy=0;edgeStyle=elbowEdgeStyle;elbow=vertical;" edge="1" parent="1" target="gKKn0FGeRDZzM-oo-BSr-28">
          <mxGeometry width="50" height="50" relative="1" as="geometry">
            <mxPoint x="40" y="810" as="sourcePoint" />
            <mxPoint x="80" y="820" as="targetPoint" />
            <Array as="points">
              <mxPoint x="40" y="880" />
            </Array>
          </mxGeometry>
        </mxCell>
        <mxCell id="L7GlHGJg_z0xj1cNvvH3-19" value="" style="endArrow=none;html=1;rounded=0;exitX=0;exitY=0.429;exitDx=0;exitDy=0;exitPerimeter=0;edgeStyle=elbowEdgeStyle;elbow=vertical;" edge="1" parent="1" source="gKKn0FGeRDZzM-oo-BSr-30">
          <mxGeometry width="50" height="50" relative="1" as="geometry">
            <mxPoint x="20" y="940" as="sourcePoint" />
            <mxPoint x="40" y="880" as="targetPoint" />
            <Array as="points">
              <mxPoint x="50" y="960" />
            </Array>
          </mxGeometry>
        </mxCell>
        <mxCell id="L7GlHGJg_z0xj1cNvvH3-20" value="" style="endArrow=none;html=1;rounded=0;entryX=0.052;entryY=0.278;entryDx=0;entryDy=0;entryPerimeter=0;" edge="1" parent="1" source="gKKn0FGeRDZzM-oo-BSr-10" target="gKKn0FGeRDZzM-oo-BSr-19">
          <mxGeometry width="50" height="50" relative="1" as="geometry">
            <mxPoint y="470" as="sourcePoint" />
            <mxPoint x="50" y="420" as="targetPoint" />
          </mxGeometry>
        </mxCell>
        <mxCell id="L7GlHGJg_z0xj1cNvvH3-21" value="" style="endArrow=none;html=1;rounded=0;entryX=0.002;entryY=0.48;entryDx=0;entryDy=0;entryPerimeter=0;edgeStyle=elbowEdgeStyle;elbow=vertical;" edge="1" parent="1" target="gKKn0FGeRDZzM-oo-BSr-11">
          <mxGeometry width="50" height="50" relative="1" as="geometry">
            <mxPoint x="40" y="440" as="sourcePoint" />
            <mxPoint x="90" y="390" as="targetPoint" />
            <Array as="points">
              <mxPoint x="40" y="374" />
            </Array>
          </mxGeometry>
        </mxCell>
        <mxCell id="L7GlHGJg_z0xj1cNvvH3-22" value="" style="endArrow=none;html=1;rounded=0;entryX=0;entryY=0.5;entryDx=0;entryDy=0;edgeStyle=elbowEdgeStyle;elbow=vertical;" edge="1" parent="1" target="gKKn0FGeRDZzM-oo-BSr-20">
          <mxGeometry width="50" height="50" relative="1" as="geometry">
            <mxPoint x="40" y="380" as="sourcePoint" />
            <mxPoint x="90" y="320" as="targetPoint" />
            <Array as="points">
              <mxPoint x="60" y="545" />
            </Array>
          </mxGeometry>
        </mxCell>
        <mxCell id="L7GlHGJg_z0xj1cNvvH3-26" value="" style="endArrow=none;html=1;rounded=0;entryX=0;entryY=0.5;entryDx=0;entryDy=0;" edge="1" parent="1" target="gKKn0FGeRDZzM-oo-BSr-2">
          <mxGeometry width="50" height="50" relative="1" as="geometry">
            <mxPoint x="-10" y="125" as="sourcePoint" />
            <mxPoint x="40" y="110" as="targetPoint" />
          </mxGeometry>
        </mxCell>
        <mxCell id="L7GlHGJg_z0xj1cNvvH3-27" value="" style="endArrow=none;html=1;rounded=0;entryX=0;entryY=0.5;entryDx=0;entryDy=0;edgeStyle=elbowEdgeStyle;elbow=vertical;" edge="1" parent="1" target="gKKn0FGeRDZzM-oo-BSr-12">
          <mxGeometry width="50" height="50" relative="1" as="geometry">
            <mxPoint x="40" y="130" as="sourcePoint" />
            <mxPoint x="90" y="80" as="targetPoint" />
            <Array as="points">
              <mxPoint x="60" y="35" />
            </Array>
          </mxGeometry>
        </mxCell>
        <mxCell id="L7GlHGJg_z0xj1cNvvH3-28" value="" style="endArrow=none;html=1;rounded=0;exitX=0;exitY=0.5;exitDx=0;exitDy=0;edgeStyle=elbowEdgeStyle;elbow=vertical;" edge="1" parent="1" source="gKKn0FGeRDZzM-oo-BSr-8">
          <mxGeometry width="50" height="50" relative="1" as="geometry">
            <mxPoint x="20" y="180" as="sourcePoint" />
            <mxPoint x="40" y="130" as="targetPoint" />
            <Array as="points">
              <mxPoint x="40" y="205" />
            </Array>
          </mxGeometry>
        </mxCell>
        <mxCell id="L7GlHGJg_z0xj1cNvvH3-31" value="" style="endArrow=none;html=1;rounded=0;edgeStyle=elbowEdgeStyle;elbow=vertical;" edge="1" parent="1">
          <mxGeometry width="50" height="50" relative="1" as="geometry">
            <mxPoint x="80" y="295" as="sourcePoint" />
            <mxPoint x="40" y="200" as="targetPoint" />
            <Array as="points">
              <mxPoint x="40" y="295" />
            </Array>
          </mxGeometry>
        </mxCell>
      </root>
    </mxGraphModel>
  </diagram>
</mxfile>
